<?xml version="1.0" standalone="no"?>
<!DOCTYPE svg PUBLIC "-//W3C//DTD SVG 20010904//EN"
 "http://www.w3.org/TR/2001/REC-SVG-20010904/DTD/svg10.dtd">
<svg version="1.0" xmlns="http://www.w3.org/2000/svg"
 width="193.000000pt" height="99.000000pt" viewBox="0 0 193.000000 99.000000"
 preserveAspectRatio="xMidYMid meet">
<metadata>
Created by potrace 1.16, written by Peter Selinger 2001-2019
</metadata>
<g transform="translate(0.000000,99.000000) scale(0.100000,-0.100000)"
fill="#000000" stroke="none">
<path d="M336 722 c-4 -7 -31 -12 -67 -12 -72 0 -118 -18 -148 -56 -21 -26
-23 -37 -19 -114 3 -70 9 -94 33 -140 37 -66 95 -110 158 -117 57 -7 69 10 18
26 -90 26 -152 159 -135 285 7 57 32 86 73 86 32 0 71 -39 71 -71 0 -11 4 -19
9 -19 11 0 21 36 21 78 0 17 4 32 10 32 5 0 31 -43 57 -97 47 -95 48 -98 48
-193 0 -67 -4 -102 -14 -113 -12 -16 -8 -17 53 -17 61 0 66 2 52 15 -21 22
-29 75 -24 160 4 60 13 90 46 160 67 139 85 103 80 -162 l-3 -173 53 0 52 0
-15 24 c-12 18 -15 47 -13 132 l3 109 53 6 c84 11 132 56 118 112 -9 37 -52
47 -207 47 l-138 0 -7 -37 c-8 -45 -30 -99 -43 -107 -9 -6 -37 58 -47 112 -6
31 -8 32 -59 32 -33 0 -55 5 -57 12 -3 9 -6 9 -12 0z"/>
<path d="M955 495 l0 -215 47 0 c47 0 47 0 38 26 -6 14 -10 74 -10 134 0 117
2 120 59 120 57 0 63 -15 59 -136 -2 -60 -8 -117 -12 -126 -7 -16 -2 -18 40
-18 l49 0 -9 109 c-6 66 -6 152 0 215 l9 106 -47 0 c-27 0 -48 -2 -48 -4 0 -1
5 -17 11 -35 6 -17 8 -43 5 -57 -6 -23 -10 -25 -59 -22 l-52 3 -3 37 c-2 20 2
46 8 58 10 19 8 20 -37 20 l-48 0 0 -215z"/>
<path d="M1300 691 c6 -12 10 -93 10 -193 0 -142 -3 -178 -16 -196 l-16 -23
118 3 118 3 8 33 c5 20 5 39 -1 50 -10 16 -10 16 -11 0 0 -28 -50 -59 -89 -56
l-36 3 -3 118 c-3 126 -4 123 52 117 31 -3 66 10 66 25 0 10 -16 15 -57 17
l-58 3 -3 43 -3 42 36 0 c46 0 71 -13 89 -48 l15 -27 1 41 c0 22 -5 45 -12 52
-8 8 -48 12 -115 12 -99 0 -103 -1 -93 -19z"/>
<path d="M1578 694 c13 -27 23 -277 14 -351 l-8 -63 48 0 c47 0 47 0 38 26
-17 42 -13 219 5 234 25 21 43 4 50 -47 9 -61 32 -156 47 -188 10 -22 17 -25
65 -25 l55 0 -36 42 c-20 23 -45 66 -56 96 -25 66 -37 142 -23 142 24 0 63 53
63 85 0 52 -19 60 -152 64 -114 3 -119 2 -110 -15z"/>
</g>
</svg>
