<svg xmlns="http://www.w3.org/2000/svg" xmlns:xlink="http://www.w3.org/1999/xlink" version="1.1" width="1000" height="1000" viewBox="0 0 1000 1000" xml:space="preserve">
<desc>Created with Fabric.js 3.5.0</desc>
<defs>
</defs>
<rect x="0" y="0" width="100%" height="100%" fill="#ffffff"/>
<g transform="matrix(1 0 0 1 389.0217 315.401)" style="" id="759380">
		
<path xml:space="preserve" font-family="Amarante" font-size="45" font-weight="normal" style="stroke: none; stroke-width: 0; stroke-dasharray: none; stroke-linecap: butt; stroke-dashoffset: 0; stroke-linejoin: miter; stroke-miterlimit: 4; is-custom-font: none; font-file-url: https://cdn.pixelied.com/user-assets/fonts/f9dcbca2-3c70-47b6-a73e-64672bf11c84.otf; fill: rgb(0,0,0); fill-rule: nonzero; opacity: 1; white-space: pre;" d="M-56.64-48.99L-56.64-48.99Q-56.00-48.09-56.00-46.23Q-56.00-44.37-56.12-43.22Q-56.24-42.07-56.48-40.99L-56.48-40.99Q-57.01-38.57-57.96-37.34L-57.96-37.34Q-58.77-41.58-60.07-43.41L-60.07-43.41Q-61.43-45.25-63.61-45.25Q-65.80-45.25-67.03-44.42Q-68.26-43.58-68.92-42.22L-68.92-42.22Q-70.02-39.96-70.02-35.55Q-70.02-31.15-69.02-27.49Q-68.02-23.83-66.17-21.19L-66.17-21.19Q-62.28-15.59-56.04-15.59L-56.04-15.59Q-56.13-14.60-57.08-13.88L-57.08-13.88Q-57.36-13.66-57.69-13.61L-57.69-13.61Q-65.67-13.61-70.70-19.48L-70.70-19.48Q-76.04-25.72-76.04-36.49L-76.04-36.49Q-76.04-42.11-72.74-44.94L-72.74-44.94Q-69.82-47.45-64.75-47.45L-64.75-47.45L-61.08-47.41Q-58.48-47.41-57.43-48.15L-57.43-48.15Q-56.99-48.48-56.64-48.99ZM-47.17-19.13L-47.17-22.29L-47.15-26.88L-47.15-29.39Q-47.15-31.37-48.77-35.01L-48.77-35.01Q-50.02-37.76-50.46-38.64L-50.46-38.64L-51.19-40.09Q-54.02-46.02-56.15-47.45L-56.15-47.45L-47.30-47.45Q-47.45-47.01-47.45-46.33Q-47.45-45.65-47.34-44.89Q-47.23-44.13-47.06-43.34L-47.06-43.34Q-46.73-41.82-46.20-40.55L-46.20-40.55L-45.15-38.00Q-44.60-36.73-43.78-35.41L-43.78-35.41Q-42.75-36.97-42.14-38.46L-42.14-38.46L-41.30-40.53Q-40.05-43.71-40.05-46.59L-40.05-46.59Q-40.05-47.08-40.11-47.45L-40.11-47.45L-34.07-47.45Q-35.28-46.17-36.60-43.74Q-37.92-41.30-38.44-40.20L-38.44-40.20L-39.56-37.76Q-41.85-32.71-41.85-29.67L-41.85-29.67L-41.85-19.63Q-41.85-17.39-41.32-16.40Q-40.80-15.41-40.20-14.86Q-39.61-14.31-38.77-13.83L-38.77-13.83L-50.00-13.83Q-47.17-15.28-47.17-19.13L-47.17-19.13ZM-25.09-34.71L-25.09-34.71Q-26.75-34.71-26.75-31.69L-26.75-31.69L-26.75-28.93Q-26.75-21.28-26.59-19.49Q-26.43-17.70-26.26-17.00Q-26.10-16.29-25.81-15.74L-25.81-15.74Q-25.35-14.84-23.96-13.83L-23.96-13.83L-33.30-13.83Q-32.49-15.46-32.31-16.60Q-32.14-17.74-32.05-19.02L-32.05-19.02Q-31.87-21.61-31.87-25.98L-31.87-25.98Q-31.87-31.28-32.05-35.65L-32.05-35.65L-32.29-41.69Q-32.38-43.98-32.69-44.88L-32.69-44.88Q-33.17-46.31-34.27-47.45L-34.27-47.45L-21.99-47.45Q-17.02-47.45-14.80-46.39L-14.80-46.39Q-12.45-45.30-12.45-42.64L-12.45-42.64Q-12.45-39.39-15.24-37.25L-15.24-37.25Q-18.54-34.71-25.09-34.71ZM-19.60-38.74Q-18.91-39.43-18.58-40.21Q-18.25-40.99-18.25-41.66Q-18.25-42.33-18.44-42.99Q-18.63-43.65-19.17-44.15L-19.17-44.15Q-20.40-45.25-23.39-45.25L-23.39-45.25Q-25.19-45.25-25.74-44.81L-25.74-44.81Q-26.75-43.98-26.75-41.54L-26.75-41.54Q-26.75-38.79-26.32-38.14Q-25.88-37.50-25.30-37.31Q-24.73-37.12-23.56-37.12Q-22.38-37.12-21.34-37.58Q-20.29-38.05-19.60-38.74ZM6.31-26.90L6.31-26.90L6.29-32.93Q6.29-34.16 5.90-34.60L5.90-34.60Q5.17-35.41 3.22-35.41L3.22-35.41L-0.26-35.41Q-2.98-35.41-3.24-33.87L-3.24-33.87Q-3.31-33.43-3.31-32.93L-3.31-32.93L-3.33-26.33Q-3.33-17.81-2.45-15.65L-2.45-15.65Q-2.10-14.82-1.35-13.83L-1.35-13.83L-9.59-13.83Q-8.89-15.50-8.77-16.62Q-8.65-17.74-8.52-19.39L-8.52-19.39Q-8.28-22.84-8.28-27.28Q-8.28-31.72-8.30-33.40Q-8.32-35.08-8.34-36.68L-8.34-36.68Q-8.50-43.34-8.76-44.67Q-9.02-46.00-9.20-46.46L-9.20-46.46L-9.59-47.45L-1.35-47.45Q-2.94-45.69-3.11-42.70L-3.11-42.70Q-3.18-41.80-3.18-40.81Q-3.18-39.82-2.99-39.26Q-2.80-38.70-2.37-38.44L-2.37-38.44Q-1.77-38.05 0.43-38.05L0.43-38.05L2.51-38.05Q4.75-38.05 5.28-38.37L5.28-38.37Q6.16-38.95 6.16-40.86L6.16-40.86Q6.16-45.54 4.31-47.45L4.31-47.45L12.55-47.45Q11.89-46.00 11.75-44.77Q11.61-43.54 11.54-42.41Q11.48-41.28 11.41-39.78Q11.35-38.29 11.30-36.68L11.30-36.68Q11.24-32.95 11.24-29.92L11.24-29.92Q11.24-17.59 12.16-14.82L12.16-14.82Q12.31-14.36 12.55-13.83L12.55-13.83L4.31-13.83Q5.41-15.30 5.65-16.37Q5.90-17.43 6.03-18.88L6.03-18.88Q6.31-21.68 6.31-26.90ZM35.08-21.96L35.08-21.96Q35.67-21.15 35.67-19.61Q35.67-18.07 35.54-17.16Q35.41-16.25 35.12-15.50L35.12-15.50Q34.46-13.83 33.38-13.83L33.38-13.83L15.59-13.83Q17.28-14.73 17.83-15.57L17.83-15.57Q18.86-17.13 18.86-19.52L18.86-19.52Q18.84-25.39 18.84-30.13L18.84-30.13L18.84-41.69Q18.84-44.97 17.81-46.44L17.81-46.44Q17.41-46.97 16.86-47.45L16.86-47.45L33.38-47.45Q34.88-46.92 35.43-43.76L35.43-43.76Q35.58-42.88 35.58-42.04L35.58-42.04Q35.58-40.33 35.08-39.32L35.08-39.32L33.89-41.69Q32.70-44.02 30.48-44.81L30.48-44.81Q29.25-45.25 27.72-45.25Q26.18-45.25 25.52-45.15Q24.86-45.05 24.51-44.68L24.51-44.68Q23.94-44.04 23.94-42.25Q23.94-40.46 24.02-39.77Q24.11-39.08 24.44-38.64L24.44-38.64Q25.12-37.78 27.32-37.78L27.32-37.78L34.22-37.78Q33.71-36.51 33.19-35.98L33.19-35.98Q32.13-34.92 30.33-34.92L30.33-34.92Q29.63-34.92 28.99-35.08L28.99-35.08Q27.80-35.36 26.90-35.36Q26.00-35.36 25.42-35.20Q24.84-35.03 24.51-34.68L24.51-34.68Q23.94-34.07 23.94-32.46L23.94-32.46L23.94-21.98Q23.94-17.85 24.40-17.08Q24.86-16.31 25.52-16.17Q26.18-16.03 27.72-16.03Q29.25-16.03 30.51-16.47Q31.76-16.91 32.60-17.70Q33.45-18.49 34.00-19.58Q34.55-20.66 35.08-21.96ZM48.61-34.71L48.61-34.71Q46.06-34.71 46.06-31.69L46.06-31.69Q46.06-19.21 46.48-17.00L46.48-17.00Q46.72-15.65 47.10-15.00L47.10-15.00L47.75-13.83L39.95-13.83Q40.66-15.50 40.78-16.62Q40.90-17.74 40.99-19.02L40.99-19.02Q41.16-21.61 41.16-25.98L41.16-25.98Q41.16-31.28 40.99-35.65L40.99-35.65L40.75-41.69Q40.66-43.98 40.35-44.88L40.35-44.88Q39.87-46.31 38.77-47.45L38.77-47.45L50.39-47.45Q55.71-47.45 58.08-46.39L58.08-46.39Q60.59-45.30 60.59-42.64L60.59-42.64Q60.59-40.31 58.85-38.26L58.85-38.26Q57.22-36.38 54.59-35.25L54.59-35.25Q54.92-26.82 59.88-19.06L59.88-19.06Q62.01-15.70 64.23-13.83L64.23-13.83L55.99-13.83Q53.84-16.78 52.02-25.76L52.02-25.76Q51.40-28.88 51.22-30.95Q51.03-33.01 50.91-33.44Q50.79-33.87 50.52-34.13L50.52-34.13Q50.00-34.71 48.61-34.71ZM53.68-38.63Q54.28-39.28 54.53-40.02Q54.79-40.77 54.79-41.46Q54.79-42.15 54.60-42.85Q54.41-43.54 53.86-44.07L53.86-44.07Q52.65-45.25 49.64-45.25L49.64-45.25Q48.52-45.25 47.83-45.16Q47.14-45.08 46.74-44.68L46.74-44.68Q46.06-44.02 46.06-41.32L46.06-41.32Q46.06-38.95 46.57-38.29L46.57-38.29Q47.47-37.12 49.29-37.12Q51.12-37.12 52.09-37.55Q53.07-37.98 53.68-38.63Z"/></g>
</svg>